name C:\Users\antoi\Documents\MyRepositories\upper-imu-dc\Results\main_tracking\Case_79\ABD01_angularVelocities_bodyFrame.mot
datacolumns 4
datarows 47
range 3.01000000 3.47000000
endheader 
time	radius_imu_x	radius_imu_y	radius_imu_z	
          3.01000000	          0.06625400	         -0.33814148	          0.03050983	
          3.02000000	          0.05820875	         -0.35580301	          0.01406645	
          3.03000000	          0.04872241	         -0.38561457	         -0.00291373	
          3.04000000	          0.03736595	         -0.42182898	         -0.02098531	
          3.05000000	          0.02484467	         -0.45999057	         -0.04055816	
          3.06000000	          0.01113953	         -0.49783773	         -0.06167967	
          3.07000000	         -0.00385035	         -0.53422731	         -0.08442506	
          3.08000000	         -0.01996523	         -0.56996322	         -0.10854346	
          3.09000000	         -0.03703857	         -0.60555679	         -0.13383576	
          3.10000000	         -0.05494694	         -0.64137467	         -0.16013285	
          3.11000000	         -0.07352817	         -0.67782445	         -0.18726272	
          3.12000000	         -0.09260683	         -0.71541879	         -0.21502141	
          3.13000000	         -0.11201838	         -0.75458876	         -0.24318679	
          3.14000000	         -0.13161144	         -0.79570811	         -0.27150572	
          3.15000000	         -0.15127069	         -0.83866494	         -0.29975162	
          3.16000000	         -0.17090496	         -0.88309436	         -0.32769401	
          3.17000000	         -0.19044063	         -0.92839244	         -0.35509854	
          3.18000000	         -0.20981095	         -0.97381739	         -0.38172459	
          3.19000000	         -0.22895090	         -1.01846652	         -0.40734346	
          3.20000000	         -0.24779014	         -1.06135144	         -0.43174886	
          3.21000000	         -0.26625278	         -1.10152942	         -0.45476050	
          3.22000000	         -0.28426399	         -1.13814188	         -0.47623744	
          3.23000000	         -0.30175961	         -1.17047697	         -0.49607913	
          3.24000000	         -0.31871232	         -1.19797618	         -0.51424741	
          3.25000000	         -0.33514454	         -1.22031366	         -0.53075821	
          3.26000000	         -0.35113599	         -1.23734939	         -0.54567649	
          3.27000000	         -0.36682248	         -1.24914037	         -0.55909922	
          3.28000000	         -0.38238537	         -1.25592575	         -0.57113829	
          3.29000000	         -0.39803359	         -1.25808975	         -0.58191169	
          3.30000000	         -0.41397567	         -1.25614942	         -0.59152656	
          3.31000000	         -0.43039459	         -1.25070758	         -0.60007292	
          3.32000000	         -0.44742586	         -1.24243052	         -0.60761614	
          3.33000000	         -0.46514613	         -1.23201118	         -0.61419648	
          3.34000000	         -0.48357193	         -1.22012700	         -0.61983097	
          3.35000000	         -0.50266500	         -1.20740841	         -0.62451457	
          3.36000000	         -0.52234159	         -1.19439592	         -0.62822487	
          3.37000000	         -0.54248058	         -1.18150819	         -0.63092541	
          3.38000000	         -0.56292973	         -1.16901716	         -0.63256953	
          3.39000000	         -0.58350922	         -1.15702743	         -0.63310255	
          3.40000000	         -0.60401823	         -1.14547245	         -0.63246347	
          3.41000000	         -0.62425223	         -1.13412383	         -0.63059340	
          3.42000000	         -0.64401173	         -1.12263739	         -0.62747457	
          3.43000000	         -0.66308427	         -1.11061804	         -0.62311826	
          3.44000000	         -0.68123627	         -1.09751231	         -0.61745445	
          3.45000000	         -0.69828638	         -1.08286365	         -0.61054304	
          3.46000000	         -0.71421625	         -1.06625621	         -0.60257682	
          3.47000000	         -0.72910722	         -1.04735665	         -0.59376938	
